# xmcd
# Copyright (C) 1995-1998 Ti Kan
#
# Track frame offsets:
#       150
#       18366
#       36854
#       52762
#       74041
#       93433
#       111551
#       132329
#       150588
#       166087
#       185515
#       200684
#
# Disc length: 2950 seconds
#
# Revision: 0
# Processed by: cddbd v1.5.1PL2 Copyright (c) Steve Scherf et al.
# Submitted via: CD-Transfer v1.0
#
DISCID=a40b840c
DTITLE=Thomas Kull Band - Buebetröim
DYEAR=2006
DGENRE=
TTITLE0=Buebetröim
TTITLE1=Fründ
TTITLE2=Hans Im Glück
TTITLE3=Früeligssunne
TTITLE4=Alles Andersch
TTITLE5=Mir Alli
TTITLE6=Chartehuus
TTITLE7=Bruni Auge
TTITLE8=Stell Dir Vor
TTITLE9=Mit Liib Und Seel
TTITLE10=Wäge Dir
TTITLE11=So Oder So
EXTD=
EXTT0=
EXTT1=
EXTT2=
EXTT3=
EXTT4=
EXTT5=
EXTT6=
EXTT7=
EXTT8=
EXTT9=
EXTT10=
EXTT11=
PLAYORDER=
